# xmcd
#
# Track frame offsets:
#	150
#	5105
#	15477
#	27700
#	33025
#	39260
#	51037
#	55300
#	71457
#	86715
#	104222
#	126225
#
# Disc length: 1888 seconds
#
# Revision: 1
# Processed by: cddbd v1.5.1PL0 Copyright (c) Steve Scherf et al.
# Submitted via: CDex 1.50Beta5
#
DISCID=9f075e0c
DTITLE=マイナーリーグ - HUMAN TO PEOPLE
DYEAR=2001
DGENRE=Rock
TTITLE0=INTRO
TTITLE1=HUMAN TO PEOPLE
TTITLE2=TRIP ANSWER
TTITLE3=LAST HOPE
TTITLE4=I HATE MEANING OF HATE
TTITLE5=BLACK THINGS WHITE THINGS
TTITLE6=FUCK YOURSELF
TTITLE7=KEEP MY PRIDE
TTITLE8=MIZUKARASUSUNDE
TTITLE9=感情の色
TTITLE10=懐かしみ
TTITLE11=LAST HOPE REMIX
EXTD=
EXTT0=
EXTT1=
EXTT2=
EXTT3=
EXTT4=
EXTT5=
EXTT6=
EXTT7=
EXTT8=
EXTT9=
EXTT10=
EXTT11=
PLAYORDER=
